<svg width="32" height="32" viewBox="0 0 32 32" fill="none" xmlns="http://www.w3.org/2000/svg">
<rect x="6" y="25" width="1" height="5" fill="#0F0F11"/>
<rect x="5" y="26" width="1" height="3" fill="#0F0F11"/>
<rect x="4" y="27" width="1" height="2" fill="#0F0F11"/>
<rect x="3" y="27" width="1" height="1" fill="#0F0F11"/>
<rect x="2" y="26" width="1" height="1" fill="#0F0F11"/>
<rect x="2" y="26" width="1" height="1" fill="#0F0F11"/>
<rect x="3" y="24" width="1" height="3" fill="#8F99A3"/>
<rect x="4" y="23" width="1" height="4" fill="#8F99A3"/>
<rect x="5" y="22" width="1" height="4" fill="#8F99A3"/>
<rect x="6" y="21" width="1" height="4" fill="#8F99A3"/>
<rect x="7" y="20" width="1" height="4" fill="#8F99A3"/>
<rect x="8" y="19" width="1" height="4" fill="#8F99A3"/>
<rect x="11" y="19" width="1" height="1" fill="#8F99A3"/>
<rect x="11" y="13" width="1" height="6" fill="#615B5D"/>
<rect x="11" y="7" width="1" height="12" fill="#615B5D"/>
<rect x="10" y="9" width="1" height="7" fill="#615B5D"/>
<rect x="12" y="14" width="1" height="6" fill="#615B5D"/>
<rect x="13" y="16" width="1" height="5" fill="#615B5D"/>
<rect x="14" y="17" width="1" height="4" fill="#615B5D"/>
<rect x="15" y="18" width="1" height="3" fill="#615B5D"/>
<rect x="16" y="19" width="1" height="2" fill="#615B5D"/>
<rect x="17" y="19" width="1" height="3" fill="#615B5D"/>
<rect x="18" y="20" width="1" height="2" fill="#615B5D"/>
<rect x="19" y="20" width="1" height="2" fill="#615B5D"/>
<rect x="20" y="20" width="1" height="2" fill="#615B5D"/>
<rect x="21" y="20" width="1" height="2" fill="#615B5D"/>
<rect x="22" y="19" width="1" height="3" fill="#615B5D"/>
<rect x="23" y="19" width="1" height="2" fill="#615B5D"/>
<rect x="24" y="19" width="1" height="2" fill="#615B5D"/>
<rect x="25" y="17" width="1" height="3" fill="#615B5D"/>
<rect x="26" y="16" width="1" height="3" fill="#615B5D"/>
<rect x="27" y="15" width="1" height="3" fill="#615B5D"/>
<rect x="28" y="8" width="1" height="9" fill="#615B5D"/>
<rect x="27" y="6" width="1" height="3" fill="#615B5D"/>
<rect x="27" y="6" width="1" height="4" fill="#615B5D"/>
<rect x="26" y="5" width="1" height="3" fill="#615B5D"/>
<rect x="25" y="4" width="1" height="2" fill="#615B5D"/>
<rect x="24" y="3" width="1" height="2" fill="#615B5D"/>
<rect x="23" y="3" width="1" height="2" fill="#615B5D"/>
<rect x="22" y="2" width="1" height="2" fill="#615B5D"/>
<rect x="21" y="2" width="1" height="2" fill="#615B5D"/>
<rect x="20" y="2" width="1" height="2" fill="#615B5D"/>
<rect x="19" y="2" width="1" height="2" fill="#615B5D"/>
<rect x="19" y="2" width="1" height="2" fill="#615B5D"/>
<rect x="18" y="2" width="1" height="2" fill="#615B5D"/>
<rect x="17" y="2" width="1" height="2" fill="#615B5D"/>
<rect x="16" y="3" width="1" height="2" fill="#615B5D"/>
<rect x="15" y="3" width="1" height="2" fill="#615B5D"/>
<rect x="14" y="4" width="1" height="2" fill="#615B5D"/>
<rect x="13" y="4" width="1" height="3" fill="#615B5D"/>
<rect x="12" y="5" width="1" height="4" fill="#615B5D"/>
<rect x="12" y="9" width="1" height="6" fill="#F6F4F4"/>
<rect x="13" y="7" width="1" height="9" fill="#F6F4F4"/>
<rect x="14" y="6" width="1" height="11" fill="#F6F4F4"/>
<rect x="15" y="5" width="1" height="11" fill="#F6F4F4"/>
<rect x="15" y="5" width="1" height="13" fill="#F6F4F4"/>
<rect x="16" y="5" width="1" height="13" fill="#F6F4F4"/>
<rect x="16" y="5" width="1" height="14" fill="#F6F4F4"/>
<rect x="17" y="4" width="1" height="15" fill="#F6F4F4"/>
<rect x="17" y="4" width="1" height="16" fill="#F6F4F4"/>
<path d="M22 4H23V19H22V4Z" fill="#F6F4F4"/>
<path d="M22 4H23V19H22V4Z" fill="#F6F4F4"/>
<path d="M22 4H23V19H22V4Z" fill="#F6F4F4"/>
<path d="M22 4H23V19H22V4Z" fill="#F6F4F4"/>
<path d="M23 5H24V19H23V5Z" fill="#F6F4F4"/>
<path d="M23 5H24V19H23V5Z" fill="#F6F4F4"/>
<path d="M23 5H24V19H23V5Z" fill="#F6F4F4"/>
<path d="M23 5H24V19H23V5Z" fill="#F6F4F4"/>
<path d="M24 5H25V19H24V5Z" fill="#F6F4F4"/>
<path d="M24 5H25V19H24V5Z" fill="#F6F4F4"/>
<path d="M24 5H25V19H24V5Z" fill="#F6F4F4"/>
<path d="M24 5H25V19H24V5Z" fill="#F6F4F4"/>
<path d="M25 6H26V17H25V6Z" fill="#F6F4F4"/>
<path d="M25 6H26V17H25V6Z" fill="#F6F4F4"/>
<path d="M25 6H26V17H25V6Z" fill="#F6F4F4"/>
<path d="M25 6H26V17H25V6Z" fill="#F6F4F4"/>
<path d="M26 8H27V16H26V8Z" fill="#F6F4F4"/>
<path d="M26 8H27V16H26V8Z" fill="#F6F4F4"/>
<path d="M26 8H27V16H26V8Z" fill="#F6F4F4"/>
<path d="M26 8H27V16H26V8Z" fill="#F6F4F4"/>
<path d="M27 10H28V15H27V10Z" fill="#F6F4F4"/>
<path d="M27 10H28V15H27V10Z" fill="#F6F4F4"/>
<path d="M27 10H28V15H27V10Z" fill="#F6F4F4"/>
<path d="M27 10H28V15H27V10Z" fill="#F6F4F4"/>
<rect x="18" y="4" width="4" height="16" fill="#F6F4F4"/>
<rect x="24" y="3" width="1" height="2" fill="#615B5D"/>
<rect x="29" y="10" width="1" height="5" fill="#615B5D"/>
<rect x="24" y="18" width="1" height="3" fill="#615B5D"/>
<rect x="20" y="20" width="1" height="2" fill="#615B5D"/>
<rect x="9" y="18" width="1" height="4" fill="#8F99A3"/>
<rect x="9" y="18" width="2" height="4" fill="#8F99A3"/>
<rect x="2" y="25" width="1" height="1" fill="#0F0F11"/>
<rect x="7" y="24" width="1" height="5" fill="#0F0F11"/>
<rect x="7" y="24" width="1" height="5" fill="#0F0F11"/>
<rect x="8" y="23" width="1" height="5" fill="#0F0F11"/>
<rect x="9" y="22" width="1" height="5" fill="#0F0F11"/>
<rect x="10" y="21" width="1" height="5" fill="#0F0F11"/>
<rect x="11" y="20" width="1" height="5" fill="#0F0F11"/>
<rect x="12" y="20" width="1" height="4" fill="#0F0F11"/>
<rect x="13" y="21" width="1" height="2" fill="#0F0F11"/>
</svg>
