<svg width="32" height="32" viewBox="0 0 32 32" fill="none" xmlns="http://www.w3.org/2000/svg">
<rect x="21" y="20" width="1" height="4" fill="#2C3035"/>
<rect x="20" y="21" width="1" height="3" fill="#2C3035"/>
<rect x="19" y="22" width="1" height="2" fill="#2C3035"/>
<rect x="18" y="22" width="1" height="3" fill="#2C3035"/>
<rect x="17" y="22" width="1" height="3" fill="#2C3035"/>
<rect x="4" y="25" width="1" height="4" fill="#949199"/>
<rect x="4" y="25" width="1" height="4" fill="#949199"/>
<rect x="6" y="23" width="1" height="5" fill="#2C3035"/>
<rect x="7" y="22" width="1" height="5" fill="#2C3035"/>
<rect x="25" y="23" width="1" height="5" fill="#2C3035"/>
<rect x="24" y="22" width="1" height="4" fill="#2C3035"/>
<rect x="24" y="22" width="1" height="4" fill="#2C3035"/>
<rect x="23" y="21" width="1" height="5" fill="#2C3035"/>
<rect x="22" y="18" width="1" height="7" fill="#2C3035"/>
<rect x="23" y="17" width="1" height="4" fill="#2C3035"/>
<rect x="24" y="17" width="1" height="3" fill="#2C3035"/>
<rect x="26" y="24" width="1" height="2" fill="#2C3035"/>
<rect x="8" y="21" width="1" height="5" fill="#2C3035"/>
<rect x="8" y="21" width="1" height="5" fill="#2C3035"/>
<rect x="9" y="19" width="1" height="6" fill="#2C3035"/>
<rect x="10" y="20" width="1" height="4" fill="#2C3035"/>
<rect x="11" y="18" width="1" height="3" fill="#D4EDFB"/>
<rect x="12" y="20" width="1" height="2" fill="#755F5F"/>
<rect x="13" y="19" width="1" height="2" fill="#755F5F"/>
<path d="M14 18H15V20H14V18Z" fill="#755F5F"/>
<path d="M15 17H16V19H15V17Z" fill="#755F5F"/>
<path d="M16 16H17V18H16V16Z" fill="#755F5F"/>
<path d="M17 15H18V17H17V15Z" fill="#755F5F"/>
<path d="M18 14H19V16H18V14Z" fill="#755F5F"/>
<path d="M19 13H20V15H19V13Z" fill="#755F5F"/>
<path d="M20 12H21V14H20V12Z" fill="#755F5F"/>
<path d="M21 11H22V13H21V11Z" fill="#755F5F"/>
<path d="M22 10H23V12H22V10Z" fill="#755F5F"/>
<path d="M23 9H24V11H23V9Z" fill="#755F5F"/>
<path d="M24 8H25V10H24V8Z" fill="#755F5F"/>
<path d="M25 7H26V9H25V7Z" fill="#755F5F"/>
<path d="M26 6H27V8H26V6Z" fill="#755F5F"/>
<path d="M27 5H28V7H27V5Z" fill="#755F5F"/>
<path d="M28 4H29V6H28V4Z" fill="#755F5F"/>
<path d="M14 18H15V20H14V18Z" fill="#755F5F"/>
<rect x="11" y="18" width="1" height="3" fill="#D4EDFB"/>
<rect x="11" y="18" width="1" height="3" fill="#D4EDFB"/>
<rect x="11" y="18" width="1" height="3" fill="#D4EDFB"/>
<rect x="11" y="18" width="1" height="3" fill="#D4EDFB"/>
<rect x="27" y="3" width="1" height="2" fill="#D4EDFB"/>
<rect x="12" y="17" width="1" height="3" fill="#D4EDFB"/>
<rect x="13" y="16" width="1" height="3" fill="#D4EDFB"/>
<rect x="14" y="15" width="1" height="3" fill="#D4EDFB"/>
<rect x="15" y="14" width="1" height="3" fill="#D4EDFB"/>
<rect x="16" y="13" width="1" height="3" fill="#D4EDFB"/>
<rect x="17" y="12" width="1" height="3" fill="#D4EDFB"/>
<rect x="18" y="11" width="1" height="3" fill="#D4EDFB"/>
<rect x="19" y="10" width="1" height="3" fill="#D4EDFB"/>
<rect x="20" y="9" width="1" height="3" fill="#D4EDFB"/>
<rect x="21" y="8" width="1" height="3" fill="#D4EDFB"/>
<rect x="22" y="7" width="1" height="3" fill="#D4EDFB"/>
<rect x="23" y="6" width="1" height="3" fill="#D4EDFB"/>
<rect x="24" y="5" width="1" height="3" fill="#D4EDFB"/>
<rect x="25" y="4" width="1" height="3" fill="#D4EDFB"/>
<rect x="26" y="3" width="1" height="3" fill="#D4EDFB"/>
<rect x="27" y="3" width="1" height="2" fill="#D4EDFB"/>
<rect x="27" y="3" width="1" height="2" fill="#D4EDFB"/>
<rect x="28" y="3" width="1" height="1" fill="#D4EDFB"/>
<rect x="23" y="6" width="1" height="3" fill="#D4EDFB"/>
<rect x="23" y="6" width="1" height="3" fill="#D4EDFB"/>
<rect x="20" y="9" width="1" height="3" fill="#D4EDFB"/>
<rect x="20" y="9" width="1" height="3" fill="#D4EDFB"/>
<rect x="10" y="19" width="1" height="1" fill="#D4EDFB"/>
<rect x="11" y="21" width="1" height="3" fill="#2C3035"/>
<rect x="12" y="22" width="1" height="3" fill="#2C3035"/>
<rect x="13" y="22" width="1" height="3" fill="#2C3035"/>
<rect x="14" y="23" width="1" height="2" fill="#2C3035"/>
<rect x="8" y="17" width="1" height="4" fill="#2C3035"/>
<rect x="7" y="17" width="1" height="3" fill="#2C3035"/>
<rect x="7" y="17" width="1" height="3" fill="#2C3035"/>
<rect x="5" y="24" width="1" height="2" fill="#2C3035"/>
<rect x="27" y="25" width="1" height="4" fill="#949199"/>
<rect x="28" y="26" width="1" height="3" fill="#949199"/>
<rect x="26" y="26" width="1" height="3" fill="#949199"/>
<rect x="5" y="26" width="1" height="3" fill="#949199"/>
<rect x="3" y="26" width="1" height="3" fill="#949199"/>
<rect x="20" y="18" width="1" height="3" fill="#BBCDDA"/>
<rect x="19" y="17" width="1" height="3" fill="#BBCDDA"/>
<rect x="18" y="16" width="1" height="3" fill="#BBCDDA"/>
<rect x="14" y="12" width="1" height="3" fill="#BBCDDA"/>
<rect x="13" y="11" width="1" height="3" fill="#BBCDDA"/>
<rect x="12" y="10" width="1" height="3" fill="#BBCDDA"/>
<rect x="11" y="9" width="1" height="3" fill="#BBCDDA"/>
<rect x="10" y="8" width="1" height="3" fill="#BBCDDA"/>
<rect x="9" y="7" width="1" height="3" fill="#BBCDDA"/>
<rect x="8" y="6" width="1" height="3" fill="#BBCDDA"/>
<rect x="7" y="5" width="1" height="3" fill="#BBCDDA"/>
<rect x="6" y="4" width="1" height="3" fill="#BBCDDA"/>
<rect x="5" y="3" width="1" height="3" fill="#BBCDDA"/>
<rect x="4" y="3" width="1" height="2" fill="#BBCDDA"/>
<rect x="3" y="3" width="1" height="1" fill="#BBCDDA"/>
<rect x="15" y="13" width="1" height="1" fill="#BBCDDA"/>
<rect x="17" y="17" width="1" height="1" fill="#BBCDDA"/>
<rect x="21" y="19" width="1" height="1" fill="#BBCDDA"/>
<rect x="21" y="19" width="1" height="1" fill="#BBCDDA"/>
<path d="M27 5H28V7H27V5Z" fill="#755F5F"/>
<rect x="19" y="20" width="1" height="2" fill="#635658"/>
<rect x="18" y="19" width="1" height="2" fill="#635658"/>
<rect x="17" y="18" width="1" height="2" fill="#635658"/>
<rect x="13" y="14" width="1" height="2" fill="#635658"/>
<rect x="13" y="14" width="1" height="2" fill="#635658"/>
<rect x="12" y="13" width="1" height="2" fill="#635658"/>
<rect x="11" y="12" width="1" height="2" fill="#635658"/>
<rect x="10" y="11" width="1" height="2" fill="#635658"/>
<rect x="9" y="10" width="1" height="2" fill="#635658"/>
<rect x="8" y="9" width="1" height="2" fill="#635658"/>
<rect x="7" y="8" width="1" height="2" fill="#635658"/>
<rect x="6" y="7" width="1" height="2" fill="#635658"/>
<rect x="5" y="6" width="1" height="2" fill="#635658"/>
<rect x="4" y="5" width="1" height="2" fill="#635658"/>
<rect x="3" y="4" width="1" height="2" fill="#635658"/>
<rect x="7" y="8" width="1" height="2" fill="#635658"/>
<rect x="16" y="18" width="1" height="1" fill="#635658"/>
<rect x="16" y="18" width="1" height="1" fill="#635658"/>
</svg>
