<svg width="32" height="32" viewBox="0 0 32 32" fill="none" xmlns="http://www.w3.org/2000/svg">
<rect x="15" y="24" width="1" height="6" fill="#FAF9D7"/>
<rect x="16" y="22" width="1" height="8" fill="#FAF9D7"/>
<rect x="17" y="25" width="1" height="4" fill="#FAF9D7"/>
<rect x="18" y="25" width="1" height="3" fill="#FAF9D7"/>
<rect x="14" y="26" width="1" height="3" fill="#FAF9D7"/>
<rect x="15" y="28" width="1" height="1" fill="#FAF9D7"/>
<rect x="13" y="27" width="1" height="1" fill="#FAF9D7"/>
<rect x="14" y="27" width="1" height="1" fill="#FAF9D7"/>
<rect x="13" y="23" width="1" height="4" fill="#FFF05A"/>
<rect x="14" y="20" width="1" height="6" fill="#FFF05A"/>
<rect x="15" y="18" width="1" height="6" fill="#FFF05A"/>
<rect x="16" y="16" width="1" height="6" fill="#FFF05A"/>
<rect x="17" y="20" width="1" height="5" fill="#FFF05A"/>
<rect x="18" y="22" width="1" height="3" fill="#FFF05A"/>
<rect x="19" y="22" width="1" height="5" fill="#FFF05A"/>
<rect x="20" y="24" width="1" height="1" fill="#FFF05A"/>
<rect x="12" y="24" width="1" height="2" fill="#FFF05A"/>
<rect x="17" y="29" width="1" height="1" fill="#FFB511"/>
<rect x="18" y="28" width="1" height="1" fill="#FFB511"/>
<rect x="19" y="27" width="1" height="1" fill="#FFB511"/>
<rect x="20" y="25" width="1" height="3" fill="#FFB511"/>
<rect x="21" y="19" width="1" height="8" fill="#FFB511"/>
<rect x="20" y="19" width="1" height="5" fill="#FFB511"/>
<rect x="19" y="10" width="1" height="12" fill="#FFB511"/>
<rect x="18" y="8" width="1" height="14" fill="#FFB511"/>
<rect x="17" y="7" width="1" height="13" fill="#FFB511"/>
<rect x="16" y="9" width="1" height="7" fill="#FFB511"/>
<rect x="15" y="11" width="1" height="7" fill="#FFB511"/>
<rect x="14" y="12" width="1" height="8" fill="#FFB511"/>
<rect x="13" y="14" width="1" height="9" fill="#FFB511"/>
<rect x="12" y="19" width="1" height="5" fill="#FFB511"/>
<rect x="11" y="20" width="1" height="7" fill="#FFB511"/>
<rect x="12" y="26" width="1" height="2" fill="#FFB511"/>
<rect x="13" y="28" width="1" height="1" fill="#FFB511"/>
<rect x="14" y="29" width="1" height="1" fill="#FFB511"/>
<rect x="10" y="21" width="1" height="5" fill="#FFB511"/>
<rect x="9" y="21" width="1" height="4" fill="#FFB511"/>
<rect x="8" y="20" width="1" height="3" fill="#FFB511"/>
<rect x="22" y="19" width="1" height="7" fill="#FFB511"/>
<rect x="22" y="19" width="1" height="7" fill="#FFB511"/>
<rect x="23" y="23" width="1" height="2" fill="#FFB511"/>
<rect x="19" y="5" width="1" height="5" fill="#EB1B00"/>
<rect x="18" y="4" width="1" height="4" fill="#EB1B00"/>
<rect x="17" y="3" width="1" height="4" fill="#EB1B00"/>
<rect x="16" y="3" width="1" height="6" fill="#EB1B00"/>
<rect x="15" y="2" width="1" height="9" fill="#EB1B00"/>
<rect x="14" y="8" width="1" height="4" fill="#EB1B00"/>
<rect x="13" y="8" width="1" height="6" fill="#EB1B00"/>
<rect x="12" y="9" width="1" height="10" fill="#EB1B00"/>
<rect x="11" y="11" width="1" height="9" fill="#EB1B00"/>
<rect x="10" y="17" width="1" height="4" fill="#EB1B00"/>
<rect x="9" y="17" width="1" height="4" fill="#EB1B00"/>
<rect x="8" y="17" width="1" height="3" fill="#EB1B00"/>
<rect x="7" y="14" width="1" height="10" fill="#EB1B00"/>
<rect x="7" y="10" width="1" height="3" fill="#EB1B00"/>
<rect x="8" y="9" width="1" height="3" fill="#EB1B00"/>
<rect x="8" y="23" width="1" height="4" fill="#EB1B00"/>
<rect x="8" y="23" width="1" height="4" fill="#EB1B00"/>
<rect x="7" y="26" width="1" height="1" fill="#EB1B00"/>
<rect x="9" y="25" width="1" height="3" fill="#EB1B00"/>
<rect x="10" y="26" width="1" height="3" fill="#EB1B00"/>
<rect x="11" y="27" width="1" height="2" fill="#EB1B00"/>
<rect x="12" y="28" width="1" height="2" fill="#EB1B00"/>
<rect x="13" y="29" width="1" height="1" fill="#EB1B00"/>
<rect x="6" y="15" width="1" height="8" fill="#EB1B00"/>
<rect x="5" y="17" width="1" height="4" fill="#EB1B00"/>
<rect x="18" y="29" width="1" height="1" fill="#EB1B00"/>
<rect x="19" y="28" width="2" height="1" fill="#EB1B00"/>
<rect x="21" y="27" width="2" height="1" fill="#EB1B00"/>
<rect x="22" y="26" width="3" height="1" fill="#EB1B00"/>
<rect x="23" y="25" width="1" height="1" fill="#EB1B00"/>
<rect x="24" y="16" width="1" height="9" fill="#EB1B00"/>
<rect x="23" y="16" width="1" height="7" fill="#EB1B00"/>
<rect x="22" y="9" width="1" height="10" fill="#EB1B00"/>
<rect x="21" y="7" width="1" height="12" fill="#EB1B00"/>
<rect x="20" y="6" width="1" height="13" fill="#EB1B00"/>
<rect x="25" y="14" width="1" height="10" fill="#EB1B00"/>
<rect x="26" y="16" width="1" height="7" fill="#EB1B00"/>
</svg>
