<svg width="32" height="32" viewBox="0 0 32 32" fill="none" xmlns="http://www.w3.org/2000/svg">
<rect x="16" y="9" width="1" height="18" fill="#E51B1B"/>
<rect x="17" y="8" width="1" height="18" fill="#E51B1B"/>
<rect x="15" y="8" width="1" height="18" fill="#E51B1B"/>
<rect x="14" y="8" width="1" height="17" fill="#E51B1B"/>
<rect x="13" y="7" width="1" height="17" fill="#E51B1B"/>
<rect x="12" y="7" width="1" height="16" fill="#E51B1B"/>
<rect x="20" y="7" width="1" height="16" fill="#E51B1B"/>
<rect x="21" y="6" width="1" height="16" fill="#E51B1B"/>
<rect x="11" y="6" width="1" height="16" fill="#E51B1B"/>
<rect x="22" y="6" width="1" height="15" fill="#E51B1B"/>
<rect x="23" y="6" width="1" height="14" fill="#E51B1B"/>
<rect x="24" y="7" width="1" height="12" fill="#E51B1B"/>
<rect x="8" y="7" width="1" height="12" fill="#E51B1B"/>
<rect x="25" y="7" width="1" height="11" fill="#E51B1B"/>
<rect x="25" y="7" width="1" height="11" fill="#E51B1B"/>
<rect x="7" y="7" width="1" height="11" fill="#E51B1B"/>
<rect x="26" y="8" width="1" height="9" fill="#E51B1B"/>
<rect x="6" y="8" width="1" height="9" fill="#E51B1B"/>
<rect x="27" y="9" width="1" height="7" fill="#E51B1B"/>
<rect x="5" y="9" width="1" height="7" fill="#E51B1B"/>
<rect x="28" y="10" width="1" height="5" fill="#E51B1B"/>
<rect x="4" y="10" width="1" height="5" fill="#E51B1B"/>
<rect x="9" y="6" width="1" height="14" fill="#E51B1B"/>
<rect x="22" y="6" width="1" height="15" fill="#E51B1B"/>
<rect x="10" y="6" width="1" height="15" fill="#E51B1B"/>
<rect x="19" y="7" width="1" height="17" fill="#E51B1B"/>
<rect x="18" y="8" width="1" height="17" fill="#E51B1B"/>
</svg>
