<svg width="32" height="32" viewBox="0 0 32 32" fill="none" xmlns="http://www.w3.org/2000/svg">
<g clip-path="url(#clip0_7_424)">
<rect x="3" y="28" width="1" height="1" fill="#9045C9"/>
<rect x="3" y="20" width="1" height="9" fill="#9045C9"/>
<rect x="2" y="19" width="1" height="9" fill="#9045C9"/>
<rect x="1" y="17" width="1" height="9" fill="#9045C9"/>
<rect y="12" width="1" height="11" fill="#9045C9"/>
<rect y="10" width="1" height="2" fill="#AA51D9"/>
<rect y="10" width="1" height="2" fill="#AA51D9"/>
<rect y="10" width="1" height="2" fill="#AA51D9"/>
<rect x="1" y="6" width="1" height="11" fill="#AA51D9"/>
<rect x="2" y="4" width="1" height="15" fill="#AA51D9"/>
<rect x="3" y="3" width="1" height="17" fill="#AA51D9"/>
<rect x="4" y="2" width="1" height="20" fill="#AA51D9"/>
<rect x="5" y="2" width="1" height="21" fill="#AA51D9"/>
<rect x="5" y="2" width="1" height="21" fill="#AA51D9"/>
<rect x="6" y="1" width="1" height="23" fill="#AA51D9"/>
<rect x="7" y="17" width="1" height="9" fill="#AA51D9"/>
<rect x="7" y="17" width="1" height="9" fill="#AA51D9"/>
<rect x="7" y="17" width="1" height="9" fill="#AA51D9"/>
<rect x="8" y="20" width="1" height="7" fill="#AA51D9"/>
<rect x="9" y="21" width="1" height="7" fill="#AA51D9"/>
<rect x="10" y="22" width="1" height="7" fill="#AA51D9"/>
<rect x="11" y="23" width="1" height="7" fill="#AA51D9"/>
<rect x="12" y="24" width="1" height="7" fill="#AA51D9"/>
<rect x="13" y="25" width="1" height="7" fill="#AA51D9"/>
<rect x="14" y="25" width="1" height="7" fill="#AA51D9"/>
<rect x="15" y="25" width="1" height="7" fill="#AA51D9"/>
<rect x="16" y="26" width="1" height="7" fill="#AA51D9"/>
<path d="M17 26H18V33H17V26Z" fill="#AA51D9"/>
<rect x="18" y="27" width="2" height="5" fill="#AA51D9"/>
<rect x="18" y="26" width="2" height="6" fill="#AA51D9"/>
<rect x="25" y="25" width="1" height="6" fill="#AA51D9"/>
<rect x="26" y="25" width="1" height="5" fill="#AA51D9"/>
<rect x="27" y="23" width="1" height="6" fill="#AA51D9"/>
<rect x="28" y="22" width="1" height="7" fill="#AA51D9"/>
<rect x="29" y="21" width="1" height="7" fill="#AA51D9"/>
<rect x="30" y="20" width="1" height="6" fill="#AA51D9"/>
<rect x="31" y="17" width="1" height="5" fill="#AA51D9"/>
<rect x="20" y="31" width="2" height="1" fill="#AA51D9"/>
<rect x="7" y="1" width="1" height="16" fill="#D564F4"/>
<rect x="8" y="1" width="1" height="19" fill="#D564F4"/>
<rect x="9" y="1" width="1" height="22" fill="#D564F4"/>
<rect x="10" y="1" width="1" height="22" fill="#D564F4"/>
<path d="M10 0H12V22H10V0Z" fill="#D564F4"/>
<rect x="12" width="1" height="25" fill="#D564F4"/>
<rect x="12" width="1" height="25" fill="#D564F4"/>
<rect x="13" width="1" height="25" fill="#D564F4"/>
<rect x="13" width="9" height="25" fill="#D564F4"/>
<rect x="20" y="2" width="7" height="24" fill="#D564F4"/>
<rect x="27" y="3" width="1" height="20" fill="#D564F4"/>
<rect x="28" y="3" width="1" height="19" fill="#D564F4"/>
<rect x="29" y="4" width="1" height="17" fill="#D564F4"/>
<rect x="30" y="6" width="1" height="14" fill="#D564F4"/>
<rect x="31" y="10" width="1" height="7" fill="#D564F4"/>
<rect x="4" y="22" width="1" height="8" fill="#9045C9"/>
<rect x="5" y="23" width="1" height="7" fill="#9045C9"/>
<rect x="6" y="24" width="1" height="7" fill="#9045C9"/>
<rect x="7" y="25" width="1" height="6" fill="#9045C9"/>
<rect x="8" y="26" width="1" height="5" fill="#9045C9"/>
<rect x="9" y="27" width="1" height="4" fill="#9045C9"/>
<path d="M10 28H11V31H10V28Z" fill="#9045C9"/>
<path d="M10 30H14V32H10V30Z" fill="#9045C9"/>
<path d="M10 28H11V31H10V28Z" fill="#9045C9"/>
<path d="M10 28H11V31H10V28Z" fill="#9045C9"/>
<rect x="8" y="25" width="1" height="6" fill="#9045C9"/>
<path d="M14 31H18V32H14V31Z" fill="#9045C9"/>
<rect x="8" y="7" width="2" height="8" fill="#3B2B5E"/>
<rect x="20" y="26" width="5" height="5" fill="#AA51D9"/>
<rect x="14" y="9" width="2" height="6" fill="#3B2B5E"/>
<rect x="10" y="16" width="2" height="9" fill="#3B2B5E"/>
<rect x="21" y="19" width="2" height="7" fill="#3B2B5E"/>
<rect x="17" y="18" width="5" height="1" fill="#3B2B5E"/>
<rect x="18" y="21" width="4" height="1" fill="#3B2B5E"/>
<rect x="16" y="22" width="3" height="1" fill="#3B2B5E"/>
<rect x="15" y="23" width="3" height="1" fill="#3B2B5E"/>
<rect x="16" y="24" width="2" height="1" fill="#3B2B5E"/>
<rect x="16" y="24" width="2" height="1" fill="#3B2B5E"/>
<rect x="16" y="25" width="4" height="1" fill="#3B2B5E"/>
<rect x="20" y="24" width="3" height="1" fill="#3B2B5E"/>
<rect x="16" y="19" width="2" height="1" fill="#3B2B5E"/>
<rect x="9" y="18" width="4" height="1" fill="#3B2B5E"/>
<rect x="10" y="25" width="3" height="1" fill="#3B2B5E"/>
<rect x="10" y="8" width="1" height="2" fill="#3B2B5E"/>
<rect x="11" y="7" width="1" height="2" fill="#3B2B5E"/>
<rect x="12" y="7" width="1" height="2" fill="#3B2B5E"/>
<rect x="13" y="7" width="1" height="2" fill="#3B2B5E"/>
<rect x="14" y="8" width="1" height="2" fill="#3B2B5E"/>
<rect x="16" y="10" width="1" height="3" fill="#3B2B5E"/>
<rect x="17" y="8" width="1" height="6" fill="#3B2B5E"/>
<rect x="17" y="8" width="1" height="6" fill="#3B2B5E"/>
<rect x="18" y="7" width="1" height="2" fill="#3B2B5E"/>
<rect x="19" y="7" width="1" height="1" fill="#3B2B5E"/>
<rect x="20" y="7" width="1" height="1" fill="#3B2B5E"/>
<rect x="21" y="8" width="1" height="1" fill="#3B2B5E"/>
<rect x="21" y="7" width="1" height="2" fill="#3B2B5E"/>
<rect x="22" y="8" width="1" height="3" fill="#3B2B5E"/>
<rect x="18" y="13" width="1" height="2" fill="#3B2B5E"/>
<rect x="19" y="14" width="1" height="1" fill="#3B2B5E"/>
<rect x="20" y="14" width="1" height="1" fill="#3B2B5E"/>
<rect x="21" y="13" width="1" height="2" fill="#3B2B5E"/>
<rect x="22" y="13" width="1" height="1" fill="#3B2B5E"/>
<rect x="19" y="14" width="1" height="1" fill="#3B2B5E"/>
<rect x="23" y="10" width="1" height="1" fill="#3B2B5E"/>
<path d="M17 10H22V11H17V10Z" fill="#3B2B5E"/>
<rect x="20" y="1" width="5" height="1" fill="#D564F4"/>
</g>
<defs>
<clipPath id="clip0_7_424">
<rect width="32" height="32" fill="white"/>
</clipPath>
</defs>
</svg>
